<?xml version="1.0" encoding="UTF-8" standalone="no"?>
<!-- Created with Inkscape (http://www.inkscape.org/) -->

<svg
   width="100mm"
   height="100mm"
   viewBox="0 0 100 100"
   version="1.1"
   id="svg1"
   sodipodi:docname="word-jumble.svg"
   inkscape:version="1.3.2 (091e20e, 2023-11-25)"
   xmlns:inkscape="http://www.inkscape.org/namespaces/inkscape"
   xmlns:sodipodi="http://sodipodi.sourceforge.net/DTD/sodipodi-0.dtd"
   xmlns="http://www.w3.org/2000/svg"
   xmlns:svg="http://www.w3.org/2000/svg">
  <sodipodi:namedview
     id="namedview1"
     pagecolor="#ffffc3"
     bordercolor="#000000"
     borderopacity="0.25"
     inkscape:showpageshadow="2"
     inkscape:pageopacity="0.0"
     inkscape:pagecheckerboard="0"
     inkscape:deskcolor="#d1d1d1"
     inkscape:document-units="mm"
     inkscape:zoom="1.4334781"
     inkscape:cx="163.58813"
     inkscape:cy="144.05522"
     inkscape:window-width="1920"
     inkscape:window-height="1080"
     inkscape:window-x="0"
     inkscape:window-y="0"
     inkscape:window-maximized="0"
     inkscape:current-layer="layer1" />
  <defs
     id="defs1">
    <inkscape:path-effect
       effect="bspline"
       id="path-effect53"
       is_visible="true"
       lpeversion="1.3"
       weight="33.333333"
       steps="2"
       helper_size="0"
       apply_no_weight="true"
       apply_with_weight="true"
       only_selected="false"
       uniform="false" />
    <inkscape:path-effect
       effect="bspline"
       id="path-effect52"
       is_visible="true"
       lpeversion="1.3"
       weight="33.333333"
       steps="2"
       helper_size="0"
       apply_no_weight="true"
       apply_with_weight="true"
       only_selected="false"
       uniform="false" />
    <inkscape:path-effect
       effect="spiro"
       id="path-effect51"
       is_visible="true"
       lpeversion="1" />
    <inkscape:path-effect
       effect="bspline"
       id="path-effect43"
       is_visible="true"
       lpeversion="1.3"
       weight="33.333333"
       steps="2"
       helper_size="0"
       apply_no_weight="true"
       apply_with_weight="true"
       only_selected="false"
       uniform="false" />
    <inkscape:path-effect
       effect="spiro"
       id="path-effect42"
       is_visible="true"
       lpeversion="1" />
    <inkscape:path-effect
       effect="bspline"
       id="path-effect41"
       is_visible="true"
       lpeversion="1.3"
       weight="33.333333"
       steps="2"
       helper_size="0"
       apply_no_weight="true"
       apply_with_weight="true"
       only_selected="false"
       uniform="false" />
    <inkscape:path-effect
       effect="bspline"
       id="path-effect14"
       is_visible="true"
       lpeversion="1.3"
       weight="33.333333"
       steps="2"
       helper_size="0"
       apply_no_weight="true"
       apply_with_weight="true"
       only_selected="false"
       uniform="false" />
    <inkscape:path-effect
       effect="bspline"
       id="path-effect13"
       is_visible="true"
       lpeversion="1.3"
       weight="33.333333"
       steps="2"
       helper_size="0"
       apply_no_weight="true"
       apply_with_weight="true"
       only_selected="false"
       uniform="false" />
    <inkscape:path-effect
       effect="bspline"
       id="path-effect10"
       is_visible="true"
       lpeversion="1.3"
       weight="33.333333"
       steps="2"
       helper_size="0"
       apply_no_weight="true"
       apply_with_weight="true"
       only_selected="false"
       uniform="false" />
    <inkscape:path-effect
       effect="bspline"
       id="path-effect9"
       is_visible="true"
       lpeversion="1.3"
       weight="33.333333"
       steps="2"
       helper_size="0"
       apply_no_weight="true"
       apply_with_weight="true"
       only_selected="false"
       uniform="false" />
    <inkscape:path-effect
       effect="spiro"
       id="path-effect5"
       is_visible="true"
       lpeversion="1" />
    <inkscape:path-effect
       effect="spiro"
       id="path-effect4"
       is_visible="true"
       lpeversion="1" />
    <inkscape:path-effect
       effect="spiro"
       id="path-effect3"
       is_visible="true"
       lpeversion="1" />
    <inkscape:path-effect
       effect="spiro"
       id="path-effect2"
       is_visible="true"
       lpeversion="1" />
    <inkscape:path-effect
       effect="spiro"
       id="path-effect6"
       is_visible="true"
       lpeversion="1" />
    <inkscape:path-effect
       effect="spiro"
       id="path-effect2-4"
       is_visible="true"
       lpeversion="1" />
  </defs>
  <g
     inkscape:label="Layer 1"
     inkscape:groupmode="layer"
     id="layer1">
    <path
       style="fill:none;fill-opacity:0.9969278;stroke:#241c1c;stroke-width:2.27653187;stroke-linejoin:round;stroke-dasharray:none"
       d="M 0.81860064,88.617671 C 17.358625,91.419101 34.720135,89.165832 49.997059,82.235031 56.947537,79.081753 63.518788,74.944165 68.875772,69.50771 74.232756,64.071256 78.339436,57.282718 79.987849,49.830534 82.035985,40.571276 80.05996,30.429596 74.416223,22.808772 68.772487,15.187949 59.489405,10.30532 50.006333,10.297601 40.516412,10.289876 31.218202,15.165629 25.56757,22.789866 19.916937,30.414104 17.94425,40.568711 20.012409,49.830534 21.674698,57.274751 25.79651,64.047185 31.154605,69.47585 36.5127,74.904514 43.071815,79.044445 50,82.235031 c 15.445735,7.11311 32.988132,9.597033 49.801464,7.051658"
       id="path2"
       sodipodi:nodetypes="csssssc"
       transform="matrix(1.0004095,0,0,0.77149784,-0.02060397,11.555851)"
       inkscape:original-d="m 0.81860064,88.617671 c -19.67207864,0 39.34241736,2.123555 49.17845836,-6.38264 C 59.833098,73.728838 70.15181,57.127589 79.987849,49.830534 89.823888,42.533482 59.842371,21.162761 50.006333,10.297601 40.170294,-0.56755885 29.803008,39.711167 20.012409,49.830534 10.221811,59.949899 40.209403,74.262349 50,82.235031 c 9.790596,7.972681 39.965425,-1.524699 49.801464,7.051658"
       inkscape:path-effect="#path-effect2" />
    <ellipse
       style="fill:#000000;fill-opacity:0;stroke:#241c1c;stroke-width:2;stroke-linejoin:round;stroke-dasharray:none"
       id="path38-3"
       cx="50"
       cy="10"
       rx="49.500431"
       ry="9.5004282" />
    <path
       style="fill:#000000;fill-opacity:0;stroke:#241c1c;stroke-width:2;stroke-linejoin:round;stroke-dasharray:none"
       d="m 99.499992,10 1.6e-5,10"
       id="path43" />
    <path
       style="fill:#000000;fill-opacity:0;stroke:#241c1c;stroke-width:2;stroke-linejoin:round;stroke-dasharray:none"
       d="m 0.49956894,10 1.6e-5,10"
       id="path43-7" />
    <path
       style="fill:#000000;fill-opacity:0;stroke:#241c1c;stroke-width:2;stroke-linejoin:round;stroke-dasharray:none"
       id="path38-5"
       sodipodi:type="arc"
       sodipodi:cx="50"
       sodipodi:cy="90"
       sodipodi:rx="49.500446"
       sodipodi:ry="9.499773"
       sodipodi:start="0"
       sodipodi:end="3.1415927"
       sodipodi:open="true"
       sodipodi:arc-type="arc"
       d="m 99.500446,90 a 49.500446,9.499773 0 0 1 -24.750224,8.227045 49.500446,9.499773 0 0 1 -49.500446,0 A 49.500446,9.499773 0 0 1 0.49955368,90" />
    <path
       style="fill:#000000;fill-opacity:0;stroke:#241c1c;stroke-width:2;stroke-linejoin:round;stroke-dasharray:none"
       d="m 99.499992,80.000001 2e-5,10"
       id="path43-74" />
    <path
       style="fill:#000000;fill-opacity:0;stroke:#241c1c;stroke-width:2;stroke-linejoin:round;stroke-dasharray:none"
       d="m 0.49999201,80.000001 1.6e-5,10"
       id="path43-7-5" />
    <path
       style="fill:#2b0000;fill-opacity:0;stroke:#241c1c;stroke-width:3;stroke-linejoin:round;stroke-dasharray:none"
       d="m 0.58078498,19.727774 c 9.50000002,10 18.99981102,19.999802 18.99981102,30 0,10.000199 -9.499811,20 -18.99981102,30"
       id="path51"
       inkscape:path-effect="#path-effect52"
       inkscape:original-d="m 0.58078498,19.727774 c 9.50000002,10 18.99981102,19.999802 28.50000002,30 -9.500189,10.000199 -19,20 -28.50000002,30"
       sodipodi:nodetypes="ccc"
       transform="translate(-0.08078498,0.27222576)" />
    <path
       style="fill:#2b0000;fill-opacity:0;stroke:#241c1c;stroke-width:3;stroke-linejoin:round;stroke-dasharray:none"
       d="M 99.5,20 C 90,30 80.50019,39.9998 80.50019,50 80.50019,60.0002 90,70 99.5,80"
       id="path52"
       inkscape:path-effect="#path-effect53"
       inkscape:original-d="M 99.5,20 C 90,30 80.50019,39.9998 71,50 80.50019,60.0002 90,70 99.5,80"
       sodipodi:nodetypes="ccc" />
    <path
       style="fill:#2b0000;fill-opacity:0;stroke:#241c1c;stroke-width:9.32164;stroke-linejoin:round;stroke-dasharray:none"
       d=""
       id="path10"
       transform="scale(0.26458333)" />
    <path
       style="fill:#ffffff;fill-opacity:1;stroke:#241c1c;stroke-width:7.90984;stroke-linejoin:round;stroke-dasharray:none"
       d="M 66.914824,149.47637 C 64.392429,144.02834 52.644655,126.65708 45.321254,117.54627 38.223934,108.71671 27.077151,96.129647 14.475282,82.714671 L 6.2784355,73.988941 V 62.573282 c 0,-6.278613 0.2354414,-11.308436 0.523203,-11.177385 0.2877616,0.131051 2.7206554,1.376799 5.4064305,2.768329 20.021761,10.373501 71.226256,19.608173 121.935941,21.99101 5.29195,0.248667 9.37293,0.672326 9.06886,0.941465 -0.30408,0.269137 -3.06424,1.38507 -6.13369,2.479849 -15.24255,5.43654 -30.66033,15.197365 -42.280705,26.76744 -13.26194,13.20454 -20.452625,25.78906 -25.035675,43.81526 -0.414582,1.63065 -0.844986,2.96482 -0.956453,2.96482 -0.111467,0 -0.962652,-1.64147 -1.891523,-3.6477 z"
       id="path53"
       transform="scale(0.26458333)" />
    <path
       style="fill:#ffffff;fill-opacity:1;stroke:#241c1c;stroke-width:7.90984;stroke-linejoin:round;stroke-dasharray:none"
       d="m 178.23781,275.17904 c -29.46444,-11.79485 -53.25073,-26.45858 -70.11716,-43.22573 -9.682829,-9.62582 -16.065695,-18.03884 -21.170576,-27.90416 -6.953751,-13.43829 -9.516036,-23.34177 -9.516036,-36.7804 0,-36.96983 27.010702,-68.970636 70.178992,-83.144248 15.30154,-5.024013 21.94313,-5.992685 41.08884,-5.992778 13.11199,-6.4e-5 18.10393,0.265349 23.02093,1.223984 48.51957,9.45955 81.68551,38.465982 87.918,76.891772 6.74932,41.61232 -23.46409,82.98938 -80.73403,110.56469 -8.56865,4.12578 -24.32599,10.75999 -28.80969,12.12955 -0.87651,0.26773 -5.28549,-1.13114 -11.85927,-3.76268 z"
       id="path54"
       transform="scale(0.26458333)" />
    <path
       style="fill:#ffffff;fill-opacity:1;stroke:#241c1c;stroke-width:7.90984;stroke-linejoin:round;stroke-dasharray:none"
       d="m 308.09305,150.4587 c -0.23441,-1.46596 -1.2155,-5.0833 -2.18019,-8.03854 -9.17852,-28.11764 -32.81095,-50.691197 -66.2859,-63.315886 l -6.27844,-2.36784 10.11526,-0.512462 c 52.86634,-2.678328 102.55916,-11.725069 123.12709,-22.415692 2.3021,-1.196562 4.42107,-2.282462 4.70883,-2.413112 0.28776,-0.13065 0.51132,4.889844 0.4968,11.156653 l -0.0264,11.394197 -10.50037,11.161664 c -24.63049,26.181668 -38.96637,44.309688 -48.68525,61.563548 -1.99915,3.54906 -3.73165,6.45284 -3.85001,6.45284 -0.11836,0 -0.407,-1.19942 -0.64142,-2.66537 z"
       id="path55"
       transform="scale(0.26458333)" />
    <path
       style="fill:#ffffff;fill-opacity:1;stroke:#241c1c;stroke-width:7.90984;stroke-linejoin:round;stroke-dasharray:none"
       d="M 154.17047,68.991227 C 103.33407,66.293406 74.995605,63.125095 48.323093,57.157227 23.86603,51.685057 6.2784355,43.629401 6.2784355,37.89949 6.2784355,33.079904 18.738566,26.280151 36.640403,21.33033 105.31169,2.3428618 247.79923,0.81470884 328.57146,18.199423 c 24.76842,5.33094 43.25144,13.796815 43.25144,19.810685 0,0.735544 -1.11641,2.421601 -2.48091,3.746792 -12.37829,12.021642 -59.24917,21.844904 -125.52941,26.308626 -10.62711,0.715696 -80.08378,1.432949 -89.64211,0.925701 z"
       id="path56"
       transform="scale(0.26458333)" />
    <path
       style="fill:#ffffff;fill-opacity:1;stroke:#241c1c;stroke-width:7.90984;stroke-linejoin:round;stroke-dasharray:none"
       d="m 34.880197,301.26894 c -1.342887,-0.12181 -7.15044,-0.57261 -12.905673,-1.00178 -5.755232,-0.42918 -10.575838,-0.88809 -10.712458,-1.01982 -0.136619,-0.13173 3.911211,-4.73191 8.995179,-10.22264 32.317799,-34.90343 46.583587,-55.52009 53.908129,-77.90705 l 2.268612,-6.93386 2.558591,4.67852 c 4.833578,8.83846 11.360396,17.17767 21.112103,26.97461 14.91452,14.98368 27.9507,24.11608 50.59094,35.4411 7.10535,3.55422 16.02517,7.69168 19.82182,9.19437 l 6.90299,2.73215 -5.17214,1.62385 c -25.67583,8.06118 -58.94545,13.99955 -90.628628,16.1765 -9.162592,0.62956 -40.743172,0.80797 -46.739465,0.26405 z"
       id="path57"
       transform="scale(0.26458333)" />
    <path
       style="fill:#ffffff;fill-opacity:1;stroke:#241c1c;stroke-width:7.90984;stroke-linejoin:round;stroke-dasharray:none"
       d="m 306.94574,302.65228 c -33.27619,-2.25651 -53.58133,-5.29645 -80.92206,-12.11509 -9.81095,-2.4468 -24.34337,-6.65588 -24.89911,-7.21162 -0.12283,-0.12283 2.05456,-1.10777 4.83865,-2.18876 8.49606,-3.29879 23.44937,-10.4079 32.11743,-15.2693 16.97612,-9.52088 30.00874,-19.43733 42.04294,-31.99025 8.59668,-8.96722 14.06236,-16.24585 18.73407,-24.9481 1.9672,-3.66439 3.18599,-5.34247 3.19319,-4.39649 0.0225,2.9508 4.38269,14.59315 8.49135,22.67305 9.06377,17.8244 26.40463,40.20198 51.44826,66.39162 4.93193,5.15763 6.33282,7.01724 5.59069,7.42134 -2.64833,1.44204 -46.16954,2.61456 -60.63541,1.6336 z"
       id="path58"
       transform="scale(0.26458333)" />
    <path
       style="fill:#ffffff;fill-opacity:1;stroke:#241c1c;stroke-width:7.90984;stroke-linejoin:round;stroke-dasharray:none"
       d="M 167.07615,371.70074 C 90.874718,369.9664 24.600186,358.56499 9.0482149,344.51472 l -2.7697794,-2.50233 v -17.89757 -17.89757 l 8.1968465,0.83886 c 53.905773,5.5167 113.843198,-0.4125 164.111328,-16.23442 l 10.11526,-3.18378 10.46406,3.25633 c 47.14799,14.6721 95.90993,21.07014 145.79922,19.13028 9.20837,-0.35805 19.01843,-0.90181 21.80013,-1.20835 l 5.05762,-0.55735 v 16.71717 16.71717 l -2.8075,2.67072 c -18.07509,17.19442 -108.67799,29.45948 -201.93925,27.33686 z"
       id="path59"
       transform="scale(0.26458333)" />
  </g>
</svg>
