<?xml version="1.0" encoding="UTF-8" standalone="no"?>
<!-- Created with Inkscape (http://www.inkscape.org/) -->

<svg
   width="100mm"
   height="100mm"
   viewBox="0 0 100 100"
   version="1.1"
   id="svg1"
   sodipodi:docname="word-jumble.svg"
   inkscape:version="1.3.2 (091e20e, 2023-11-25)"
   xmlns:inkscape="http://www.inkscape.org/namespaces/inkscape"
   xmlns:sodipodi="http://sodipodi.sourceforge.net/DTD/sodipodi-0.dtd"
   xmlns="http://www.w3.org/2000/svg"
   xmlns:svg="http://www.w3.org/2000/svg">
  <sodipodi:namedview
     id="namedview1"
     pagecolor="#ffffc3"
     bordercolor="#000000"
     borderopacity="0.25"
     inkscape:showpageshadow="2"
     inkscape:pageopacity="0.0"
     inkscape:pagecheckerboard="0"
     inkscape:deskcolor="#d1d1d1"
     inkscape:document-units="mm"
     inkscape:zoom="0.60467806"
     inkscape:cx="176.12678"
     inkscape:cy="201.76026"
     inkscape:window-width="1376"
     inkscape:window-height="847"
     inkscape:window-x="70"
     inkscape:window-y="25"
     inkscape:window-maximized="0"
     inkscape:current-layer="layer1" />
  <defs
     id="defs1">
    <inkscape:path-effect
       effect="bspline"
       id="path-effect53"
       is_visible="true"
       lpeversion="1.3"
       weight="33.333333"
       steps="2"
       helper_size="0"
       apply_no_weight="true"
       apply_with_weight="true"
       only_selected="false"
       uniform="false" />
    <inkscape:path-effect
       effect="bspline"
       id="path-effect52"
       is_visible="true"
       lpeversion="1.3"
       weight="33.333333"
       steps="2"
       helper_size="0"
       apply_no_weight="true"
       apply_with_weight="true"
       only_selected="false"
       uniform="false" />
    <inkscape:path-effect
       effect="spiro"
       id="path-effect51"
       is_visible="true"
       lpeversion="1" />
    <inkscape:path-effect
       effect="bspline"
       id="path-effect43"
       is_visible="true"
       lpeversion="1.3"
       weight="33.333333"
       steps="2"
       helper_size="0"
       apply_no_weight="true"
       apply_with_weight="true"
       only_selected="false"
       uniform="false" />
    <inkscape:path-effect
       effect="spiro"
       id="path-effect42"
       is_visible="true"
       lpeversion="1" />
    <inkscape:path-effect
       effect="bspline"
       id="path-effect41"
       is_visible="true"
       lpeversion="1.3"
       weight="33.333333"
       steps="2"
       helper_size="0"
       apply_no_weight="true"
       apply_with_weight="true"
       only_selected="false"
       uniform="false" />
    <inkscape:path-effect
       effect="bspline"
       id="path-effect14"
       is_visible="true"
       lpeversion="1.3"
       weight="33.333333"
       steps="2"
       helper_size="0"
       apply_no_weight="true"
       apply_with_weight="true"
       only_selected="false"
       uniform="false" />
    <inkscape:path-effect
       effect="bspline"
       id="path-effect13"
       is_visible="true"
       lpeversion="1.3"
       weight="33.333333"
       steps="2"
       helper_size="0"
       apply_no_weight="true"
       apply_with_weight="true"
       only_selected="false"
       uniform="false" />
    <inkscape:path-effect
       effect="bspline"
       id="path-effect10"
       is_visible="true"
       lpeversion="1.3"
       weight="33.333333"
       steps="2"
       helper_size="0"
       apply_no_weight="true"
       apply_with_weight="true"
       only_selected="false"
       uniform="false" />
    <inkscape:path-effect
       effect="bspline"
       id="path-effect9"
       is_visible="true"
       lpeversion="1.3"
       weight="33.333333"
       steps="2"
       helper_size="0"
       apply_no_weight="true"
       apply_with_weight="true"
       only_selected="false"
       uniform="false" />
    <inkscape:path-effect
       effect="spiro"
       id="path-effect5"
       is_visible="true"
       lpeversion="1" />
    <inkscape:path-effect
       effect="spiro"
       id="path-effect4"
       is_visible="true"
       lpeversion="1" />
    <inkscape:path-effect
       effect="spiro"
       id="path-effect3"
       is_visible="true"
       lpeversion="1" />
    <inkscape:path-effect
       effect="spiro"
       id="path-effect2"
       is_visible="true"
       lpeversion="1" />
    <inkscape:path-effect
       effect="spiro"
       id="path-effect6"
       is_visible="true"
       lpeversion="1" />
    <inkscape:path-effect
       effect="spiro"
       id="path-effect2-4"
       is_visible="true"
       lpeversion="1" />
  </defs>
  <g
     inkscape:label="Layer 1"
     inkscape:groupmode="layer"
     id="layer1">
    <path
       style="fill:#ffffff;fill-opacity:0.9969278;stroke:#241c1c;stroke-width:1;stroke-linejoin:round"
       d="M 0.81860064,88.617671 C 17.358625,91.419101 34.720135,89.165832 49.997059,82.235031 56.947537,79.081753 63.518788,74.944165 68.875772,69.50771 74.232756,64.071256 78.339436,57.282718 79.987849,49.830534 82.035985,40.571276 80.05996,30.429596 74.416223,22.808772 68.772487,15.187949 59.489405,10.30532 50.006333,10.297601 40.516412,10.289876 31.218202,15.165629 25.56757,22.789866 19.916937,30.414104 17.94425,40.568711 20.012409,49.830534 21.674698,57.274751 25.79651,64.047185 31.154605,69.47585 36.5127,74.904514 43.071815,79.044445 50,82.235031 c 15.445735,7.11311 32.988132,9.597033 49.801464,7.051658"
       id="path2"
       sodipodi:nodetypes="csssssc"
       inkscape:original-d="m 0.81860064,88.617671 c -19.67207864,0 39.34241736,2.123555 49.17845836,-6.38264 C 59.833098,73.728838 70.15181,57.127589 79.987849,49.830534 89.823888,42.533482 59.842371,21.162761 50.006333,10.297601 40.170294,-0.56755885 29.803008,39.711167 20.012409,49.830534 10.221811,59.949899 40.209403,74.262349 50,82.235031 c 9.790596,7.972681 39.965425,-1.524699 49.801464,7.051658"
       inkscape:path-effect="#path-effect2"
       transform="matrix(1.0004095,0,0,0.77149784,-0.02060397,11.555851)" />
    <path
       style="fill:#000000;fill-opacity:0;stroke:#241c1c;stroke-width:0.99911;stroke-linejoin:round;stroke-dasharray:none"
       id="path38"
       sodipodi:type="arc"
       sodipodi:cx="50"
       sodipodi:cy="20"
       sodipodi:rx="49.500446"
       sodipodi:ry="9.499773"
       sodipodi:start="0"
       sodipodi:end="3.1415927"
       sodipodi:open="true"
       sodipodi:arc-type="arc"
       d="m 99.500446,20 a 49.500446,9.499773 0 0 1 -24.750224,8.227045 49.500446,9.499773 0 0 1 -49.500446,0 A 49.500446,9.499773 0 0 1 0.49955368,20" />
    <ellipse
       style="fill:#000000;fill-opacity:0;stroke:#241c1c;stroke-width:0.999144;stroke-linejoin:round;stroke-dasharray:none"
       id="path38-3"
       cx="50"
       cy="10"
       rx="49.500431"
       ry="9.5004282" />
    <path
       style="fill:#000000;fill-opacity:0;stroke:#241c1c;stroke-width:0.999984;stroke-linejoin:round;stroke-dasharray:none"
       d="m 99.499992,10 1.6e-5,10"
       id="path43" />
    <path
       style="fill:#000000;fill-opacity:0;stroke:#241c1c;stroke-width:0.999984;stroke-linejoin:round;stroke-dasharray:none"
       d="m 0.49956894,10 1.6e-5,10"
       id="path43-7" />
    <path
       style="fill:#000000;fill-opacity:0;stroke:#241c1c;stroke-width:0.99911;stroke-linejoin:round;stroke-dasharray:none"
       id="path38-5"
       sodipodi:type="arc"
       sodipodi:cx="50"
       sodipodi:cy="90"
       sodipodi:rx="49.500446"
       sodipodi:ry="9.499773"
       sodipodi:start="0"
       sodipodi:end="3.1415927"
       sodipodi:open="true"
       sodipodi:arc-type="arc"
       d="m 99.500446,90 a 49.500446,9.499773 0 0 1 -24.750224,8.227045 49.500446,9.499773 0 0 1 -49.500446,0 A 49.500446,9.499773 0 0 1 0.49955368,90" />
    <ellipse
       style="fill:#000000;fill-opacity:0;stroke:#241c1c;stroke-width:0.999144;stroke-linejoin:round;stroke-dasharray:none"
       id="path38-3-1"
       cx="50.000004"
       cy="80"
       rx="49.500431"
       ry="9.5004282" />
    <path
       style="fill:#000000;fill-opacity:0;stroke:#241c1c;stroke-width:0.999984;stroke-linejoin:round;stroke-dasharray:none"
       d="m 99.499992,80.000001 2e-5,10"
       id="path43-74" />
    <path
       style="fill:#000000;fill-opacity:0;stroke:#241c1c;stroke-width:0.999984;stroke-linejoin:round;stroke-dasharray:none"
       d="m 0.49999201,80.000001 1.6e-5,10"
       id="path43-7-5" />
    <path
       style="fill:#2b0000;fill-opacity:0;stroke:#241c1c;stroke-width:0.999;stroke-linejoin:round;stroke-dasharray:none"
       d="m 0.58078498,19.727774 c 9.50000002,10 18.99981102,19.999802 18.99981102,30 0,10.000199 -9.499811,20 -18.99981102,30"
       id="path51"
       inkscape:path-effect="#path-effect52"
       inkscape:original-d="m 0.58078498,19.727774 c 9.50000002,10 18.99981102,19.999802 28.50000002,30 -9.500189,10.000199 -19,20 -28.50000002,30"
       sodipodi:nodetypes="ccc"
       transform="translate(-0.08078498,0.27222576)" />
    <path
       style="fill:#2b0000;fill-opacity:0;stroke:#241c1c;stroke-width:0.799999;stroke-linejoin:round;stroke-dasharray:none"
       d="M 99.5,20 C 90,30 80.50019,39.9998 80.50019,50 80.50019,60.0002 90,70 99.5,80"
       id="path52"
       inkscape:path-effect="#path-effect53"
       inkscape:original-d="M 99.5,20 C 90,30 80.50019,39.9998 71,50 80.50019,60.0002 90,70 99.5,80"
       sodipodi:nodetypes="ccc" />
    <path
       style="fill:#ffffff;fill-opacity:1;stroke:#241c1c;stroke-width:9.32164;stroke-linejoin:round;stroke-dasharray:none"
       d="m 301.44704,303.98857 c -30.13209,-2.10673 -61.05653,-7.49477 -89.67626,-15.62451 -8.66254,-2.46069 -15.59916,-4.59701 -15.41469,-4.74738 0.18447,-0.15037 7.55126,-3.39156 16.37065,-7.20264 17.98816,-7.77314 12.2123,-7.25492 49.32304,-4.42533 36.37715,2.77365 71.62511,8.99479 91.30061,16.11421 8.1382,2.94475 10.78849,4.58914 14.44328,8.96144 l 4.47615,5.3549 -7.63276,0.76113 c -14.21419,1.41741 -48.25013,1.85272 -63.19002,0.80818 z"
       id="path1"
       transform="scale(0.26458333)" />
    <path
       style="display:inline;fill:#ffffff;fill-opacity:1;stroke:#241c1c;stroke-width:9.32164;stroke-linejoin:round;stroke-dasharray:none"
       d="M 139.2707,257.91391 C 97.914369,232.59779 75.310967,200.71552 75.24193,167.60083 75.20543,150.09406 83.393255,128.7407 94.970473,116.14996 l 5.679867,-6.1771 20.27412,1.4847 c 45.68844,3.34584 111.94525,2.91481 148.25087,-0.96443 l 8.5382,-0.91231 4.49988,5.35107 c 21.10014,25.09136 26.02004,56.95168 13.14734,85.13963 -9.71667,21.27704 -29.95303,41.80793 -57.5659,58.40376 l -10.05105,6.04085 -38.95649,-0.0689 -38.95649,-0.0689 z"
       id="path3"
       transform="scale(0.26458333)"
       sodipodi:nodetypes="csscsscssscccc" />
    <path
       style="fill:#ffffff;fill-opacity:1;stroke:#241c1c;stroke-width:9.32164;stroke-linejoin:round;stroke-dasharray:none"
       d="M 140.582,70.123223 C 64.226043,65.711798 4.9327018,51.609922 4.9327018,37.861424 c 0,-6.114148 16.9203132,-14.868736 38.5892722,-19.966131 76.159876,-17.91580909 216.765776,-17.91190634 290.051986,0.0081 31.95245,7.81302 44.91538,16.214195 37.41996,24.2516 -10.51805,11.2786 -49.57831,20.668113 -109.56072,26.336797 -13.89911,1.313547 -105.05437,2.544135 -120.8512,1.631481 z"
       id="path4"
       transform="scale(0.26458333)" />
    <path
       style="fill:#ffffff;fill-opacity:1;stroke:#241c1c;stroke-width:9.32164;stroke-linejoin:round;stroke-dasharray:none"
       d="M 76.456878,101.66822 C 55.805122,98.564859 44.939186,96.194932 30.212799,91.582106 19.556177,88.244074 17.001599,86.888245 11.406873,81.600946 L 4.9327018,75.482529 V 62.078728 48.674927 l 7.0907592,3.544786 C 34.075703,63.243989 79.044119,71.41874 139.25787,75.349495 l 12.85738,0.83933 -9.88325,3.353185 c -12.53583,4.253158 -25.98908,11.289719 -35.93592,18.795869 -8.850341,6.678691 -8.108247,6.595871 -29.839202,3.330341 z"
       id="path5"
       transform="scale(0.26458333)" />
    <path
       style="fill:#ffffff;fill-opacity:1;stroke:#241c1c;stroke-width:9.32164;stroke-linejoin:round;stroke-dasharray:none"
       d="m 276.19243,102.28357 c -2.59831,-3.163988 -19.1227,-13.822681 -27.09099,-17.47444 -3.73035,-1.709573 -10.6554,-4.371113 -15.38899,-5.914534 l -8.60652,-2.806222 6.75676,-0.688696 c 3.71622,-0.378782 13.24985,-0.990416 21.18585,-1.359185 44.16009,-2.052028 98.57938,-12.889707 114.74604,-22.851838 l 5.85758,-3.609528 V 61.540959 75.50279 l -5.91996,5.537426 c -8.80327,8.234423 -26.16321,13.996406 -58.20516,19.319014 -25.10202,4.16979 -31.20146,4.5219 -33.33461,1.92434 z"
       id="path6"
       transform="scale(0.26458333)" />
    <path
       style="fill:#ffffff;fill-opacity:1;stroke:#241c1c;stroke-width:9.32164;stroke-linejoin:round;stroke-dasharray:none"
       d="M 66.724649,152.59621 C 61.819854,142.40854 48.766252,123.79863 36.310497,109.23616 29.686147,101.4914 25.326739,95.581104 26.622924,96.102176 c 6.385988,2.567194 31.50746,8.121984 48.212747,10.660674 l 18.72619,2.8458 -3.414618,3.88904 c -7.968124,9.07519 -18.574708,31.62519 -18.641951,39.6335 -0.04542,5.40919 -2.02554,5.1876 -4.780643,-0.53498 z"
       id="path7"
       transform="scale(0.26458333)" />
    <path
       style="fill:#ffffff;fill-opacity:1;stroke:#241c1c;stroke-width:9.32164;stroke-linejoin:round;stroke-dasharray:none"
       d="m 25.896684,281.26065 c 0,-0.4311 4.3007,-5.66443 9.55711,-11.62961 19.737311,-22.39869 33.746615,-45.61117 38.459089,-63.72414 l 2.141573,-8.2314 1.649445,4.1324 c 2.282871,5.71934 11.565809,20.06243 17.669103,27.30058 6.696076,7.94114 22.319126,21.08594 35.307996,29.70716 l 10.44639,6.93367 h -6.82408 c -24.80838,0 -91.387572,9.68597 -106.248569,15.45709 -1.186931,0.46094 -2.158057,0.48534 -2.158057,0.0543 z"
       id="path8"
       transform="scale(0.26458333)" />
    <path
       style="fill:#ffffff;fill-opacity:1;stroke:#241c1c;stroke-width:9.32164;stroke-linejoin:round;stroke-dasharray:none"
       d="m 307.08026,158.08424 c -0.0548,-9.68563 -8.76689,-31.02821 -17.25509,-42.27075 l -4.84067,-6.41142 10.11321,-1.43179 c 20.58104,-2.91379 48.95536,-8.876238 57.08331,-11.995224 1.22283,-0.469247 -2.11587,4.103524 -7.41935,10.161714 -14.04479,16.04344 -23.88706,29.72259 -31.20724,43.37295 -5.06956,9.45351 -6.45879,11.29344 -6.47417,8.57452 z"
       id="path9"
       transform="scale(0.26458333)" />
    <path
       style="fill:#2b0000;fill-opacity:0;stroke:#241c1c;stroke-width:9.32164;stroke-linejoin:round;stroke-dasharray:none"
       d=""
       id="path10"
       transform="scale(0.26458333)" />
    <path
       style="fill:#ffffff;fill-opacity:1;stroke:#241c1c;stroke-width:9.32164;stroke-linejoin:round;stroke-dasharray:none"
       d="m 339.12325,278.56512 c -15.93043,-4.43155 -44.49981,-8.90474 -70.73819,-11.07569 -32.81175,-2.71483 -31.19057,-2.0493 -21.11472,-8.6681 24.58559,-16.1502 45.56636,-38.58028 53.21874,-56.89501 l 1.92318,-4.60282 2.21323,8.71512 c 4.50208,17.72801 14.8519,35.54981 33.61532,57.88365 14.34374,17.07315 14.93971,17.88443 13.00875,17.70853 -0.90437,-0.0824 -6.36122,-1.46194 -12.12631,-3.06568 z"
       id="path11"
       transform="scale(0.26458333)" />
    <path
       style="fill:#ffffff;fill-opacity:0.9969278;stroke:#241c1c;stroke-width:9.32164;stroke-linejoin:round;stroke-dasharray:none"
       d="m 32.17265,302.6438 c -9.774026,-0.53049 -19.094757,-1.29678 -20.712736,-1.70286 l -2.9417804,-0.73834 2.7165004,-3.81498 c 1.518022,-2.13186 5.487614,-5.02505 8.99757,-6.55777 17.40189,-7.59899 58.409932,-14.69822 107.111746,-18.54296 l 22.48687,-1.77521 12.33175,5.45542 c 6.78247,3.00049 13.93477,6.05398 15.89402,6.78555 1.95924,0.73157 3.33463,1.55774 3.05642,1.83595 -0.93642,0.93643 -22.53882,6.90155 -36.02545,9.9478 -20.10261,4.5406 -45.214415,7.89642 -68.948175,9.21392 -11.694693,0.64918 -22.372935,1.10781 -23.729428,1.01917 -1.356493,-0.0886 -10.463282,-0.5952 -20.237307,-1.12569 z"
       id="path12"
       transform="scale(0.26458333)" />
    <path
       style="fill:#ffffff;fill-opacity:1;stroke:#241c1c;stroke-width:9.32164;stroke-linejoin:round;stroke-dasharray:none"
       d="M 144.40202,334.70714 C 77.754989,331.55161 18.724945,319.78991 7.9434343,307.51785 c -2.1651865,-2.46452 -2.1841154,-2.64847 -0.1979332,-1.9235 1.2079163,0.44089 12.4250709,1.4518 24.9270099,2.24645 25.82188,1.6413 54.163106,0.30348 83.862569,-3.95865 26.23901,-3.76552 56.06961,-10.87232 68.54269,-16.32952 4.00443,-1.75201 4.75406,-1.75281 8.01564,-0.009 1.97894,1.05831 8.89495,3.47071 15.36891,5.36088 43.93828,12.82847 93.68249,18.73332 138.05998,16.3883 12.54756,-0.66304 22.99409,-1.07129 23.2145,-0.90723 0.22042,0.16407 -3.66408,2.2907 -8.63222,4.72584 -33.85701,16.59508 -126.76374,25.85361 -216.70256,21.59528 z"
       id="path13"
       transform="scale(0.26458333)" />
    <path
       style="fill:#ffffff;fill-opacity:1;stroke:#241c1c;stroke-width:9.32164;stroke-linejoin:round;stroke-dasharray:none"
       d="m 139.34883,372.31193 c -1.69562,-0.19476 -11.68434,-0.98356 -22.19716,-1.75289 C 65.362864,366.76912 23.407195,357.40503 9.0084142,346.42254 l -4.0757124,-3.10869 v -15.11554 -15.11553 l 9.5571102,4.72459 c 18.38639,9.08939 55.233066,16.25019 107.594558,20.90997 27.24415,2.42452 111.84174,2.03525 140.53853,-0.64669 51.96819,-4.85682 87.38977,-12.26317 104.55509,-21.86157 l 6.47417,-3.62019 v 14.57793 c 0,14.29921 -0.0648,14.6396 -3.39123,17.80316 -13.20214,12.55587 -58.22059,22.3198 -123.62584,26.81285 -15.65162,1.0752 -98.955,1.48602 -107.28626,0.5291 z"
       id="path14"
       transform="scale(0.26458333)" />
  </g>
</svg>
